<?xml version="1.0"?>
<svg xmlns="http://www.w3.org/2000/svg" height="512px" viewBox="-2 0 326 326.00004" width="512px"><path d="m274 224v-122h-26.765625c-13.890625-.1875-25.09375-11.429688-25.234375-25.320312v-23.679688h-122v21.570312c-.144531 15.058594-12.289062 27.238282-27.34375 27.429688h-20.65625v122h20.65625c15.054688.191406 27.199219 12.371094 27.34375 27.429688v29.570312h122v-31.679688c.140625-13.890624 11.34375-25.132812 25.234375-25.320312zm0 0" fill="#FFFFFF"/><path d="m13 0h59c7.179688 0 13 5.820312 13 13v62c0 7.179688-5.820312 13-13 13h-59c-7.179688 0-13-5.820312-13-13v-62c0-7.179688 5.820312-13 13-13zm0 0" fill="#FFFFFF"/><path d="m72.65625 238h-59.171875c-7.351563.171875-13.28125 6.074219-13.484375 13.429688v61.570312c0 7.167969 6.316406 13 13.484375 13h59.171875c7.246094.019531 13.175781-5.757812 13.34375-13v-61.570312c-.132812-7.328126-6.015625-13.25-13.34375-13.429688zm0 0" fill="#FFFFFF"/><path d="m246.898438 238h63.203124c6.019532 0 10.898438 4.878906 10.898438 10.898438v66.210937c-.003906 6.015625-4.882812 10.886719-10.894531 10.890625h-63.207031c-6.019532 0-10.898438-4.878906-10.898438-10.898438v-66.210937c.003906-6.015625 4.882812-10.890625 10.898438-10.890625zm0 0" fill="#FFFFFF"/><path d="m246.898438 0h63.203124c6.019532 0 10.898438 4.878906 10.898438 10.898438v66.210937c-.003906 6.015625-4.882812 10.886719-10.894531 10.890625h-63.207031c-6.019532 0-10.898438-4.878906-10.898438-10.898438v-66.210937c.003906-6.015625 4.882812-10.890625 10.898438-10.890625zm0 0" fill="#FFFFFF"/></svg>
